PathFileType	4	(X/Y/Z)	OpenSim_Sub02_EMGBaseline_Gyro.trc
DataRate	CameraRate	NumFrames	NumMarkers	Units	OrigDataRate	OrigDataStartFrame	OrigNumFrames
100	100	23	8	m	100	4205	6727
Frame#	Time	torso_imu_offset_imu	pelvis_imu_offset_imu	tibia_r_imu_offset_imu	femur_r_imu_offset_imu	tibia_l_imu_offset_imu	femur_l_imu_offset_imu	toes_r_imu_offset_imu	toes_l_imu_offset_imu
				X1	Y1	Z1	X2	Y2	Z2	X3	Y3	Z3	X4	Y4	Z4	X5	Y5	Z5	X6	Y6	Z6	X7	Y7	Z7	X8		Y8	Z8	

4205	42.04000000	0.41707973	0.10541007	-0.06736001	0.69332855	-0.29160265	0.16702973	-0.85875975	-1.14168741	-1.51674219	1.31382032	-0.05781860	-0.27767548	0.25955815	1.33590992	2.71481502	0.39804059	0.48594835	-1.90271315	0.42565233	-0.10012339	-0.14664280	0.54513719	-7.21821723	1.70687974
4206	42.05000000	0.51418177	0.01749208	0.02477486	0.97171437	-0.24454882	0.36559368	-0.61982089	-0.36631527	-1.10584956	-0.48827702	-0.71734913	-1.09068540	-0.11408199	1.44942548	2.76649819	0.31999227	0.42781201	-2.12132581	-0.03762084	-0.19021609	-0.14243765	1.64280764	-7.20478726	1.96811362
4207	42.06000000	0.62316596	-0.05522239	0.15393309	1.05161473	-0.17191997	0.52374481	0.16507331	-0.45089726	-0.79533918	-1.87254401	-0.95675674	-1.67145965	-0.09399445	1.44904091	2.74328024	0.38326583	0.30170021	-2.37785512	-0.02342059	-0.11261876	-0.17206034	2.00700602	-6.84859237	2.22263417
4208	42.07000000	0.71375264	-0.11347251	0.29291678	1.00661233	-0.07233244	0.58222722	-0.89490060	-0.60721605	-0.67577983	-2.59675845	-0.91226066	-2.16962599	0.37909030	1.35140499	2.64241512	0.53091466	0.11761163	-2.64874410	0.11686232	-0.08684886	-0.20542650	2.49457930	-6.21269114	2.44952897
4209	42.08000000	0.77577084	-0.13830533	0.42743053	0.95422083	0.03497410	0.57114017	-2.07560917	-0.61413791	-0.74899887	-2.50017781	-0.74989438	-2.45785014	0.72140786	1.16608326	2.48669279	0.65586427	-0.09639025	-2.87131437	0.19272195	-0.09019391	-0.20459330	2.27099755	-5.36474046	2.67878534
4210	42.09000000	0.82157201	-0.15533218	0.54563211	0.92586773	0.10944742	0.47626846	-1.72012660	-0.59551281	-0.84780770	-1.67155183	-0.56824243	-2.37566769	0.51582887	0.94554733	2.15522071	0.69473039	-0.26955139	-3.00317042	0.11029840	-0.15207298	-0.18025807	1.92612487	-4.71240666	2.95815480
4211	42.10000000	0.86297837	-0.17332745	0.61985052	0.90754651	0.12103923	0.28479337	-1.09749529	-0.25816784	-0.80595622	-0.62363139	-0.37941464	-1.76144612	0.32179440	0.86050290	1.60871688	0.65614894	-0.34706568	-3.01146821	0.01521058	-0.18637878	-0.15255344	2.02085221	-3.84415440	3.10311832
4212	42.11000000	0.90099725	-0.17959163	0.63994945	0.85463123	0.08774854	0.07207343	-0.90813347	0.25323928	-0.81676279	0.19398203	-0.33378100	-0.60052698	0.39814040	0.87408732	1.08867851	0.53762810	-0.38033075	-2.92305976	0.07458403	-0.23364289	-0.08798644	1.95273102	-3.35927375	3.58955390
4213	42.12000000	0.93833364	-0.19204376	0.62620770	0.73057133	0.00292510	-0.08929698	-0.46398519	0.12812471	-0.88109275	0.71428878	-0.41157912	0.17953528	0.54722550	0.76963531	0.80977457	0.37142889	-0.49151296	-2.79093876	-0.02079820	-0.32547742	0.00317294	2.34115783	-0.73159996	3.98631020
4214	42.13000000	0.96986571	-0.21193894	0.59286900	0.56506972	-0.12215194	-0.19904100	0.24638312	-0.34631412	-0.82954759	1.37777796	-0.33211364	0.19328859	0.58113936	0.54654594	0.74688044	0.24246207	-0.68203606	-2.67023346	-0.21648862	-0.38513344	0.02232357	2.60448454	2.55985560	3.78051917
4215	42.14000000	0.98432929	-0.25475535	0.53143755	0.46307155	-0.19053271	-0.28739652	0.82517507	-0.43705661	-0.75179728	1.97265774	-0.17813321	-0.11033104	0.75935443	0.25662256	0.77238340	0.20744494	-0.85026669	-2.55158490	-0.12465259	-0.38873118	-0.03218622	1.99514175	3.57937304	3.53011713
4216	42.15000000	0.97609327	-0.30210579	0.44111994	0.45274284	-0.19693549	-0.33964505	1.01339871	-0.27111081	-0.66976816	1.91668997	-0.21247427	-0.51949370	1.27998679	-0.17723492	0.84407722	0.25901667	-0.90984655	-2.41515607	0.00839797	-0.33934397	-0.09900581	1.30388183	4.17926909	3.22914756
4217	42.16000000	0.94448377	-0.33640349	0.35455707	0.47839771	-0.19622385	-0.35251030	0.92047633	-0.21611079	-0.59658207	1.41694326	-0.44781495	-0.83176091	1.95301129	-0.75601399	0.82027112	0.29735062	-0.85148509	-2.29742118	0.07099109	-0.28060759	-0.14584256	0.51847719	4.19355058	2.84071113
4218	42.17000000	0.91287291	-0.37534951	0.28907264	0.54281107	-0.19867474	-0.36245927	0.71337036	-0.31078318	-0.57647157	0.81276547	-0.70523369	-0.95838365	2.63708792	-1.32009660	0.45487269	0.22162422	-0.75512344	-2.16850281	0.10325153	-0.24877144	-0.16513484	-0.42603710	3.99546945	2.22937693
4219	42.18000000	0.89010935	-0.41281761	0.24500635	0.64971687	-0.17599743	-0.37816538	0.39439400	-0.34062076	-0.60817191	0.27292884	-0.83020418	-0.98405811	3.11382140	-1.69160423	-0.23533851	0.06194936	-0.69237901	-2.03437793	0.06553717	-0.23806264	-0.18238982	-1.17659140	3.71992222	1.41988476
4220	42.19000000	0.87157620	-0.42697695	0.21034682	0.77208793	-0.10596518	-0.38231146	-0.00320309	-0.29810530	-0.63715530	-0.14481545	-0.78252558	-0.98116240	3.26273012	-1.81116921	-1.04168365	-0.16167842	-0.64155528	-1.97374558	0.09181181	-0.18984250	-0.19576639	-1.16930628	3.52257903	0.45686115
4221	42.20000000	0.86519946	-0.44018536	0.19013012	0.85838915	-0.01253649	-0.37883114	-0.28408877	-0.22595642	-0.60552003	-0.41550202	-0.64967225	-0.94780978	3.05879487	-1.68048266	-1.77849813	-0.41147806	-0.54881313	-1.95346511	0.12291885	-0.18689737	-0.18548549	-0.46727909	3.40758305	-0.55626049
4222	42.21000000	0.86625407	-0.45187885	0.19627082	0.88233745	0.06804325	-0.37457196	-0.39445460	-0.17666066	-0.56064807	-0.47192645	-0.55905816	-0.82693260	2.55409479	-1.43565051	-2.28743556	-0.65304483	-0.40077121	-1.95476611	0.06991741	-0.18179590	-0.16310427	0.39849339	3.36373778	-1.45095355
4223	42.22000000	0.86852550	-0.43443860	0.21603722	0.85564042	0.12137287	-0.37434175	-0.41283534	-0.20879168	-0.55610206	-0.36818393	-0.53544475	-0.61354795	1.84975134	-1.28356255	-2.52999800	-0.91545423	-0.21821704	-1.97934496	0.01380950	-0.19122340	-0.14077017	0.86789327	3.48629957	-2.10804306
4224	42.23000000	0.86310118	-0.40106101	0.24392068	0.78920538	0.15411103	-0.36829502	-0.33222755	-0.25070435	-0.56928595	-0.28455556	-0.56346310	-0.47627421	1.05789059	-1.32175528	-2.61145981	-1.17060299	-0.04385864	-1.98677205	0.00283035	-0.25436289	-0.11099431	0.80549828	3.72910907	-2.47055622
4225	42.24000000	0.86005266	-0.36249397	0.26441181	0.68733005	0.18008513	-0.35653341	-0.24275594	-0.23912605	-0.55863890	-0.28350668	-0.61287637	-0.50486932	0.34503591	-1.59828559	-2.62123052	-1.39042167	0.10068896	-1.95157823	-0.01073952	-0.27338281	-0.09201885	0.54385848	4.01264728	-2.59202918
4226	42.25000000	0.85043842	-0.32120085	0.28287282	0.57094515	0.21073871	-0.35645534	-0.21734592	-0.20580408	-0.50704582	-0.30639246	-0.63469218	-0.56797824	-0.37121949	-2.06173697	-2.65708487	-1.53512382	0.19291903	-1.86278328	0.00641984	-0.26434724	-0.07266556	0.44814394	4.26643745	-2.56621079
4227	42.26000000	0.83297017	-0.29275302	0.30431015	0.46609560	0.22663089	-0.35608497	-0.20052564	-0.17335449	-0.44468455	-0.31869512	-0.62132604	-0.60187683	-1.24533109	-2.48677014	-2.77900624	-1.59202830	0.22078054	-1.72815865	-0.02772660	-0.26089934	-0.03594042	0.68915476	4.43942018	-2.44418340
